# xmcd
#
# Track frame offsets:
#	182
#	14717
#	27512
#	33497
#	46832
#	55060
#	65907
#	85547
#	101112
#	113575
#	127912
#	141860
#	161302
#	176077
#
# Disc length: 2594 seconds
#
# Revision: 3
# Processed by: cddbd v1.5.2PL0 Copyright (c) Steve Scherf et al.
# Submitted via: EasyCDDAExtractor 16.0.6.1
#
DISCID=b90a200e
DTITLE=T-Bone Walker - Jazz and Blues Collection - T-Bone Walker - Cd 39
DYEAR=1970
DGENRE=Blues
TTITLE0=Louisiana Bayou Drive
TTITLE1=Stormy Monday Blues
TTITLE2=Don't Go Back to Now Orleans
TTITLE3=All Night Long
TTITLE4=Got to Cross the Deep Blue Sea
TTITLE5=My Patience Keeps Running Out
TTITLE6=To Be a Slave Like Me
TTITLE7=When we Were Schoolmates
TTITLE8=Glamor Girl
TTITLE9=Left Home When I Was a Kid
TTITLE10=That Evening Train
TTITLE11=T-Bone's That Way
TTITLE12=I Got a Break Baby
TTITLE13=Mean Old World
EXTD=
EXTT0=
EXTT1=
EXTT2=
EXTT3=
EXTT4=
EXTT5=
EXTT6=
EXTT7=
EXTT8=
EXTT9=
EXTT10=
EXTT11=
EXTT12=
EXTT13=
PLAYORDER=
